<?xml version="1.0" encoding="UTF-8" standalone="no"?>
<svg
   xmlns:dc="http://purl.org/dc/elements/1.1/"
   xmlns:cc="http://creativecommons.org/ns#"
   xmlns:rdf="http://www.w3.org/1999/02/22-rdf-syntax-ns#"
   xmlns:svg="http://www.w3.org/2000/svg"
   xmlns="http://www.w3.org/2000/svg"
   enable-background="new"
   id="svg8"
   version="1.1"
   viewBox="0 0 33.866666 33.866668"
   height="128"
   width="128">
  <defs
     id="defs2">
    <filter
       id="filter3074"
       style="color-interpolation-filters:sRGB">
      <feBlend
         id="feBlend3076"
         in2="BackgroundImage"
         mode="overlay" />
    </filter>
  </defs>
  <metadata
     id="metadata5">
    <rdf:RDF>
      <cc:Work
         rdf:about="">
        <dc:format>image/svg+xml</dc:format>
        <dc:type
           rdf:resource="http://purl.org/dc/dcmitype/StillImage" />
        <dc:title></dc:title>
      </cc:Work>
    </rdf:RDF>
  </metadata>
  <g
     style="display:inline"
     id="layer2">
    <path
       id="path854"
       d="m 0.63476512,25.759099 0.69347618,1.153788 3.5828362,0.115741 0.3006783,-0.367495 3.8345884,-0.638818 6.3884708,-6.577459 0.467722,-0.03341 0.634765,-2.104747 -0.233861,-3.608139 -0.955014,-1.902615 -1.326562,-0.07423 -3.331084,-0.02768 -0.584652,-0.05011 -0.7516957,0.0167 -0.2672694,0.835217 -2.319038,2.214759 c -2.0865517,2.062634 -2.4411324,3.98028 -3.6611178,5.970371 l -2.33860821,4.944486 z"
       style="fill:#ada596;fill-opacity:1;stroke:none;stroke-width:0.26458332px;stroke-linecap:butt;stroke-linejoin:miter;stroke-opacity:1" />
    <path
       id="path22"
       d="m 5.7713512,15.962 0.375848,0.150339 2.9817255,0.04181 c 0.3613079,0.207382 0.4889225,0.50824 0.6347651,0.801808 -1.3451266,1.082856 -2.6930504,2.167564 -3.8419993,3.315813 -0.8661658,0.176109 -1.603238,0.143699 -2.3803692,-0.258917 0.735586,-1.400811 1.2350421,-2.749811 2.2300299,-4.050852 z"
       style="fill:#c9a362;fill-opacity:0;stroke:none;stroke-width:0.26458332px;stroke-linecap:butt;stroke-linejoin:miter;stroke-opacity:1" />
    <path
       id="path831"
       d="m 5.7654453,15.849788 c -0.1537509,-0.0615 0.1795553,0.20943 0.3817539,0.262551 1.0058959,0.07987 2.0581513,0.04117 3.0496429,0.04181 L 9.8227486,16.90871 C 8.5316036,18.008339 6.9550728,19.033346 5.9216903,20.27177 5.0610821,20.24124 4.2246749,20.22021 3.5413211,20.012853 4.1555956,18.609346 4.7018232,17.080732 5.7654453,15.849788 Z"
       style="fill:#caa362;fill-opacity:1;stroke:none;stroke-width:0.26458332px;stroke-linecap:butt;stroke-linejoin:miter;stroke-opacity:1" />
    <path
       id="path856"
       d="m 16.386963,15.703083 2.555765,-0.3842 c 0.364073,-0.170901 0.818938,-0.387197 1.26953,-0.601357 0.745403,-0.631536 0.622894,-1.423638 0.567948,-2.255086 -0.290876,-0.396003 -0.406997,-0.704629 -0.935444,-1.219418 -1.395068,-0.296109 -2.838347,-0.254739 -4.276312,-0.250565 l -3.524617,0.06682 -2.6893999,0.601353 5.9939939,0.135315 z"
       style="fill:#33332d;fill-opacity:1;stroke:none;stroke-width:0.26458332px;stroke-linecap:butt;stroke-linejoin:miter;stroke-opacity:1" />
    <path
       id="path858"
       d="m 1.9042954,26.961811 2.4054257,0.701582 2.6893996,-0.484426 0.6848782,-0.902033 -2.4722431,0.384199 -0.3006783,0.367495 z"
       style="fill:#33302a;fill-opacity:0.99966933;stroke:none;stroke-width:0.26458332px;stroke-linecap:butt;stroke-linejoin:miter;stroke-opacity:1" />
  </g>
  <g
     style="display:inline"
     id="layer4">
    <path
       id="path913"
       d="m 4.2522323,21.043819 1.8544454,2.220614 0.3661646,-0.01181 -1.736328,-2.291484 -0.4488469,0.08268 z"
       style="fill:#6a695e;fill-opacity:1;stroke:none;stroke-width:0.26458332px;stroke-linecap:butt;stroke-linejoin:miter;stroke-opacity:1" />
    <path
       id="path915"
       d="m 2.6096815,25.154908 c -0.3744776,-0.06561 -0.7326478,-0.137511 -1.0755862,-0.255682 0.311624,-0.57103 0.6458159,-1.076773 0.9625732,-1.619353 0.4236328,-0.725649 0.8074922,-1.473252 1.2476582,-2.330544 l 0.9921875,0.01181 -0.4488469,0.08268 H 4.2522323 C 3.5296985,21.99606 3.0690055,23.03138 2.498321,24.013991 c -0.1709521,0.294347 -0.4270369,0.540957 -0.60844,0.833214 0.2669335,0.165304 0.4840487,0.07316 0.7281528,0.12432 z"
       style="fill:#6c6b5d;fill-opacity:1;stroke:none;stroke-width:0.26458332px;stroke-linecap:butt;stroke-linejoin:miter;stroke-opacity:1" />
    <path
       id="path917"
       d="m 5.5291383,26.611022 3.5172059,-0.588707 6.4218798,-6.577459 0.434313,-0.03341 0.634765,-2.104747 c -0.04919,-0.534333 0.0896,-1.026894 -0.150339,-1.603616 l -0.476074,-1.80407 C 11.361112,17.023276 7.5696269,21.206035 5.5291383,26.611022 Z"
       style="fill:#6b6253;fill-opacity:0.4039409;stroke:none;stroke-width:0.26458332px;stroke-linecap:butt;stroke-linejoin:miter;stroke-opacity:0.99507392" />
    <path
       id="path919"
       d="m 6.9335008,16.000204 0.4606583,0.04725 c 0.7159091,-1.072336 1.8383097,-2.15195 2.7993859,-3.071057 L 10.016369,12.65748 c -1.1109822,1.011504 -2.3141845,2.144513 -3.0828682,3.342726 z"
       style="fill:#58584c;fill-opacity:1;stroke:none;stroke-width:0.26458332px;stroke-linecap:butt;stroke-linejoin:miter;stroke-opacity:1" />
    <path
       id="path925"
       d="m 20.375125,11.947946 0.405081,0.514494 11.423228,-4.3442143 -1.181795,0.035329 z"
       style="fill:#33322c;fill-opacity:1;stroke:none;stroke-width:0.26458332px;stroke-linecap:butt;stroke-linejoin:miter;stroke-opacity:1" />
    <path
       id="path927"
       d="m 30.723467,7.7910701 0.298172,0.3624842 1.181796,-0.035329 -0.141116,-0.3271555 z"
       style="fill:#4f4c45;fill-opacity:1;stroke:none;stroke-width:0.26458332px;stroke-linecap:butt;stroke-linejoin:miter;stroke-opacity:1" />
  </g>
  <g
     style="display:inline"
     id="layer3">
    <path
       id="path906"
       d="m 12.419732,18.400834 -0.426012,-0.07517 -1.353052,1.102487 0.02506,1.829126 1.286234,0.960499 0.300726,-0.06682 -0.968852,-0.7684 -0.0084,-1.912648 z"
       style="fill:#d5d5bc;fill-opacity:1;stroke:none;stroke-width:0.26458332px;stroke-linecap:butt;stroke-linejoin:miter;stroke-opacity:1" />
    <path
       id="path829"
       d="m 11.275433,19.469912 0.0084,1.912648 0.968852,0.7684 1.219417,-0.977204 0.05847,-2.021226 -1.11084,-0.751696 z"
       style="display:inline;fill:#403e34;fill-opacity:1;stroke:none;stroke-width:0.26458332px;stroke-linecap:butt;stroke-linejoin:miter;stroke-opacity:1" />
    <path
       id="path833"
       d="M 8.6194423,23.203334 10.406807,23.027938 8.6528509,24.940586 7.308151,24.88212 Z"
       style="display:inline;fill:#141415;fill-opacity:1;stroke:none;stroke-width:0.26458332px;stroke-linecap:butt;stroke-linejoin:miter;stroke-opacity:1" />
    <path
       id="path908"
       d="m 5.7759486,15.870274 0.4015998,0.236235 2.9411272,0.04725 0.6378347,0.791387 L 10.42978,16.57898 9.874628,15.952957 6.5437128,15.941145 6.0239954,15.563169 Z"
       style="fill:#aaa28c;fill-opacity:1;stroke:none;stroke-width:0.26458332px;stroke-linecap:butt;stroke-linejoin:miter;stroke-opacity:1" />
    <path
       id="path910"
       d="m 3.4962799,19.921707 c 0.6825829,0.435219 1.6077393,0.325366 2.3741627,0.425223 1.2271762,-1.171806 2.3898857,-2.379427 3.8860677,-3.401785 L 10.42978,16.57898 10.4534,16.815215 C 8.7978324,17.908467 7.4155194,19.238816 5.9295013,20.630412 L 4.2640437,20.583162 C 3.9170034,20.461482 3.5332034,20.364308 3.3663503,20.122503 Z"
       style="fill:#aaa28c;fill-opacity:1;stroke:none;stroke-width:0.26458332px;stroke-linecap:butt;stroke-linejoin:miter;stroke-opacity:1" />
    <path
       id="path923"
       d="M 19.844762,11.243022 20.375125,11.947946 31.021638,8.1535545 30.723466,7.7910703 Z"
       style="fill:#c3c0af;fill-opacity:1;stroke:none;stroke-width:0.26458332px;stroke-linecap:butt;stroke-linejoin:miter;stroke-opacity:1" />
    <path
       id="path929"
       d="m 12.289387,11.070968 c 1.036913,-0.01667 2.061763,-0.03796 3.098656,-0.07016 L 14.499372,7.294114 13.084514,7.282421 Z"
       style="fill:#535047;fill-opacity:1;stroke:none;stroke-width:0.26458332px;stroke-linecap:butt;stroke-linejoin:miter;stroke-opacity:1" />
    <path
       id="path833-3"
       d="m 14.085939,16.230105 1.705513,-0.152009 -0.876978,2.216667 -1.73057,-1.075765 z"
       style="display:inline;fill:#141415;fill-opacity:1;stroke:none;stroke-width:0.26458332px;stroke-linecap:butt;stroke-linejoin:miter;stroke-opacity:1" />
  </g>
  <g
     style="display:inline"
     id="layer5" />
  <g
     style="filter:url(#filter3074)"
     id="layer7" />
  <g
     style="display:inline"
     id="layer6">
    <text
       id="text2217"
       y="32.649498"
       x="12.068703"
       style="font-style:normal;font-weight:normal;font-size:12.60455227px;line-height:7.87784529px;font-family:sans-serif;letter-spacing:0px;word-spacing:0px;display:inline;fill:#020083;fill-opacity:0.99901474;stroke:none;stroke-width:0.31511381;"
       xml:space="preserve"><tspan
         style="font-style:normal;font-variant:normal;font-weight:bold;font-stretch:normal;font-family:'Noto Sans UI';-inkscape-font-specification:'Noto Sans UI Bold';fill:#020083;fill-opacity:0.99901474;stroke-width:0.31511381;"
         y="32.649498"
         x="12.068703"
         id="tspan2215"><tspan
           id="tspan2276"
           style="font-style:normal;font-variant:normal;font-weight:bold;font-stretch:normal;font-size:11.28888893px;font-family:'Agency FB';-inkscape-font-specification:'Agency FB Bold';fill:#020083;fill-opacity:0.99901474;stroke-width:0.31511381;">LIBRE</tspan></tspan></text>
  </g>
</svg>
